<?xml version="1.0" encoding="utf-8"?>
<!-- Generator: Adobe Illustrator 25.2.0, SVG Export Plug-In . SVG Version: 6.00 Build 0)  -->
<svg version="1.1" id="Layer_1" xmlns="http://www.w3.org/2000/svg" xmlns:xlink="http://www.w3.org/1999/xlink" x="0px" y="0px"
	 viewBox="0 0 16 16" style="enable-background:new 0 0 16 16;" xml:space="preserve">
<path class="header-menu-btn" d="M11.26,5.11H4.74C4.32,5.11,4,5.47,4.04,5.88l0.84,8.32c0.04,0.36,0.34,0.63,0.7,0.62l4.99-0.05
	c0.36,0,0.65-0.28,0.68-0.64l0.7-8.27C11.99,5.46,11.67,5.11,11.26,5.11z M6.28,14.11c-0.26,0.03-0.49-0.2-0.51-0.52L5.19,6.46
	c-0.03-0.32,0.16-0.6,0.42-0.63c0.26-0.03,0.49,0.2,0.51,0.52l0.57,7.14C6.73,13.8,6.54,14.08,6.28,14.11z M8.58,13.56
	c0,0.32-0.24,0.58-0.54,0.58c-0.3,0-0.54-0.26-0.54-0.58V6.38c0-0.32,0.24-0.58,0.54-0.58h0c0.3,0,0.54,0.26,0.54,0.58V13.56z
	 M10.91,6.43l-0.4,7.16c-0.02,0.32-0.25,0.56-0.52,0.54c-0.27-0.02-0.48-0.3-0.46-0.62l0.4-7.16c0.02-0.32,0.25-0.56,0.52-0.54
	C10.73,5.83,10.93,6.11,10.91,6.43z"/>
<path class="header-menu-btn" d="M11.94,3.04L9.58,2.61c0.01-0.71-0.55-1.33-1.3-1.43C7.58,1.1,6.94,1.5,6.71,2.1L4.35,1.68
	C4.07,1.63,3.81,1.81,3.76,2.09l-0.11,0.6C3.6,2.97,3.78,3.23,4.06,3.28l3.72,0.67C7.82,3.96,7.86,3.97,7.9,3.97l3.75,0.67
	c0.28,0.05,0.54-0.13,0.59-0.41l0.11-0.6C12.4,3.35,12.22,3.09,11.94,3.04z M8.09,1.53c0.05,0,0.1,0,0.15,0.01
	c0.55,0.07,0.96,0.5,0.99,1.01L7.07,2.17C7.24,1.79,7.64,1.53,8.09,1.53z"/>
</svg>
